{
  "accessors": [
    {
      "bufferView": 2,
      "componentType": 5126,
      "count": 424,
      "max": [
        1.6457829475402832,
        4.142510890960693,
        1.7311749458312988
      ],
      "min": [
        -1.6445740461349487,
        3.915954113006592,
        1.4485249519348145
      ],
      "type": "VEC3"
    },
    {
      "bufferView": 2,
      "byteOffset": 5088,
      "componentType": 5126,
      "count": 424,
      "max": [
        0.9996093511581421,
        0.9991998076438904,
        0.9995003938674927
      ],
      "min": [
        -0.9999571442604065,
        -0.99873948097229,
        -0.9999684691429138
      ],
      "type": "VEC3"
    },
    {
      "bufferView": 3,
      "componentType": 5126,
      "count": 424,
      "max": [
        0.9999827742576599,
        0.9757931232452393,
        0.9426296949386597,
        1.0
      ],
      "min": [
        -0.29870501160621643,
        -0.9168022274971008,
        -0.9911606907844543,
        1.0
      ],
      "type": "VEC4"
    },
    {
      "bufferView": 1,
      "componentType": 5126,
      "count": 424,
      "max": [
        0.992900013923645,
        -0.020800000056624413
      ],
      "min": [
        0.0017000000225380063,
        -0.9984999895095825
      ],
      "type": "VEC2"
    },
    {
      "bufferView": 0,
      "componentType": 5125,
      "count": 2100,
      "type": "SCALAR"
    },
    {
      "bufferView": 2,
      "byteOffset": 10176,
      "componentType": 5126,
      "count": 2610,
      "max": [
        1.6793800592422485,
        3.393939971923828,
        1.6571600437164307
      ],
      "min": [
        -1.676759958267212,
        -3.22268009185791,
        0.5779899954795837
      ],
      "type": "VEC3"
    },
    {
      "bufferView": 2,
      "byteOffset": 41496,
      "componentType": 5126,
      "count": 2610,
      "max": [
        1.0,
        1.0,
        1.0
      ],
      "min": [
        -1.0,
        -1.0,
        -1.0
      ],
      "type": "VEC3"
    },
    {
      "bufferView": 3,
      "byteOffset": 6784,
      "componentType": 5126,
      "count": 2610,
      "max": [
        1.0,
        1.0,
        1.0,
        1.0
      ],
      "min": [
        -1.0,
        -1.0,
        -1.0,
        -1.0
      ],
      "type": "VEC4"
    },
    {
      "bufferView": 1,
      "byteOffset": 3392,
      "componentType": 5126,
      "count": 2610,
      "max": [
        0.8733000159263611,
        -0.000699999975040555
      ],
      "min": [
        0.0010000000474974513,
        -0.20559999346733093
      ],
      "type": "VEC2"
    },
    {
      "bufferView": 0,
      "byteOffset": 8400,
      "componentType": 5125,
      "count": 6444,
      "type": "SCALAR"
    },
    {
      "bufferView": 2,
      "byteOffset": 72816,
      "componentType": 5126,
      "count": 5568,
      "max": [
        1.6798800230026245,
        3.585599899291992,
        1.2908999919891357
      ],
      "min": [
        1.03725004196167,
        -3.544919967651367,
        -0.011620000004768372
      ],
      "type": "VEC3"
    },
    {
      "bufferView": 2,
      "byteOffset": 139632,
      "componentType": 5126,
      "count": 5568,
      "max": [
        1.0,
        0.9999445676803589,
        1.0
      ],
      "min": [
        -1.0,
        -0.9999167323112488,
        -1.0
      ],
      "type": "VEC3"
    },
    {
      "bufferView": 3,
      "byteOffset": 48544,
      "componentType": 5126,
      "count": 5568,
      "max": [
        1.0,
        0.9996125102043152,
        1.0,
        1.0
      ],
      "min": [
        -1.0,
        -0.9995833039283752,
        -1.0,
        -1.0
      ],
      "type": "VEC4"
    },
    {
      "bufferView": 1,
      "byteOffset": 24272,
      "componentType": 5126,
      "count": 5568,
      "max": [
        1.0002000331878662,
        4.019499778747559
      ],
      "min": [
        0.0005000000237487257,
        -6.1468000411987305
      ],
      "type": "VEC2"
    },
    {
      "bufferView": 0,
      "byteOffset": 34176,
      "componentType": 5125,
      "count": 16836,
      "type": "SCALAR"
    },
    {
      "bufferView": 2,
      "byteOffset": 206448,
      "componentType": 5126,
      "count": 144,
      "max": [
        0.9639599919319153,
        3.637929916381836,
        1.8187299966812134
      ],
      "min": [
        -0.9642800092697144,
        2.7304599285125732,
        1.8096799850463867
      ],
      "type": "VEC3"
    },
    {
      "bufferView": 2,
      "byteOffset": 208176,
      "componentType": 5126,
      "count": 144,
      "max": [
        0.02427602931857109,
        0.009866293519735336,
        0.9999979734420776
      ],
      "min": [
        -0.022722730413079262,
        -0.040539998561143875,
        0.9991540312767029
      ],
      "type": "VEC3"
    },
    {
      "bufferView": 3,
      "byteOffset": 137632,
      "componentType": 5126,
      "count": 144,
      "max": [
        0.01593189500272274,
        0.9999940395355225,
        0.040439534932374954,
        1.0
      ],
      "min": [
        -0.013690010644495487,
        -0.9999974966049194,
        -0.03936692699790001,
        1.0
      ],
      "type": "VEC4"
    },
    {
      "bufferView": 1,
      "byteOffset": 68816,
      "componentType": 5126,
      "count": 144,
      "max": [
        4.646900177001953,
        4.592400074005127
      ],
      "min": [
        -4.587800025939941,
        -5.307400226593018
      ],
      "type": "VEC2"
    },
    {
      "bufferView": 0,
      "byteOffset": 101520,
      "componentType": 5125,
      "count": 384,
      "type": "SCALAR"
    },
    {
      "bufferView": 2,
      "byteOffset": 209904,
      "componentType": 5126,
      "count": 2388,
      "max": [
        1.2225899696350098,
        0.41446998715400696,
        2.9414799213409424
      ],
      "min": [
        0.8948400020599365,
        0.054340001195669174,
        2.9014899730682373
      ],
      "type": "VEC3"
    },
    {
      "bufferView": 2,
      "byteOffset": 238560,
      "componentType": 5126,
      "count": 2388,
      "max": [
        0.9994187355041504,
        1.0,
        0.9999975562095642
      ],
      "min": [
        -0.9992877244949341,
        -0.988379716873169,
        -0.9999974966049194
      ],
      "type": "VEC3"
    },
    {
      "bufferView": 3,
      "byteOffset": 139936,
      "componentType": 5126,
      "count": 2388,
      "max": [
        0.9079474210739136,
        1.0,
        0.905497670173645,
        1.0
      ],
      "min": [
        -0.9992902874946594,
        -0.688204288482666,
        -0.9998811483383179,
        1.0
      ],
      "type": "VEC4"
    },
    {
      "bufferView": 1,
      "byteOffset": 69968,
      "componentType": 5126,
      "count": 2388,
      "max": [
        0.9884999990463257,
        -0.014700000174343586
      ],
      "min": [
        0.28769999742507935,
        -0.987500011920929
      ],
      "type": "VEC2"
    },
    {
      "bufferView": 0,
      "byteOffset": 103056,
      "componentType": 5125,
      "count": 4404,
      "type": "SCALAR"
    },
    {
      "bufferView": 2,
      "byteOffset": 267216,
      "componentType": 5126,
      "count": 101,
      "max": [
        0.07261700183153152,
        -4.878265857696533,
        2.062088966369629
      ],
      "min": [
        -0.058632999658584595,
        -5.697606086730957,
        1.9307390451431274
      ],
      "type": "VEC3"
    },
    {
      "bufferView": 2,
      "byteOffset": 268428,
      "componentType": 5126,
      "count": 101,
      "max": [
        0.9990555644035339,
        0.00027890215278603137,
        0.9990605711936951
      ],
      "min": [
        -0.9990577101707458,
        -1.0,
        -0.9990527033805847
      ],
      "type": "VEC3"
    },
    {
      "bufferView": 3,
      "byteOffset": 178144,
      "componentType": 5126,
      "count": 101,
      "max": [
        0.9990721344947815,
        0.04625343903899193,
        0.9992231726646423,
        1.0
      ],
      "min": [
        -1.0,
        -0.06768278032541275,
        -0.999067485332489,
        -1.0
      ],
      "type": "VEC4"
    },
    {
      "bufferView": 1,
      "byteOffset": 89072,
      "componentType": 5126,
      "count": 101,
      "max": [
        5.531899929046631,
        -0.00019999999494757503
      ],
      "min": [
        -4.993199825286865,
        -0.9890000224113464
      ],
      "type": "VEC2"
    },
    {
      "bufferView": 0,
      "byteOffset": 120672,
      "componentType": 5125,
      "count": 354,
      "type": "SCALAR"
    },
    {
      "bufferView": 2,
      "byteOffset": 269640,
      "componentType": 5126,
      "count": 5684,
      "max": [
        -1.0372300148010254,
        3.585599899291992,
        1.2912499904632568
      ],
      "min": [
        -1.679919958114624,
        -3.544919967651367,
        -0.011620000004768372
      ],
      "type": "VEC3"
    },
    {
      "bufferView": 2,
      "byteOffset": 337848,
      "componentType": 5126,
      "count": 5684,
      "max": [
        1.0,
        0.9999445676803589,
        1.0
      ],
      "min": [
        -1.0,
        -0.9999167323112488,
        -1.0
      ],
      "type": "VEC3"
    },
    {
      "bufferView": 3,
      "byteOffset": 179760,
      "componentType": 5126,
      "count": 5684,
      "max": [
        1.0,
        0.9996125102043152,
        1.0,
        1.0
      ],
      "min": [
        -1.0,
        -0.9995833039283752,
        -1.0,
        -1.0
      ],
      "type": "VEC4"
    },
    {
      "bufferView": 1,
      "byteOffset": 89880,
      "componentType": 5126,
      "count": 5684,
      "max": [
        1.0002000331878662,
        3.947999954223633
      ],
      "min": [
        0.0005000000237487257,
        -6.1468000411987305
      ],
      "type": "VEC2"
    },
    {
      "bufferView": 0,
      "byteOffset": 122088,
      "componentType": 5125,
      "count": 17202,
      "type": "SCALAR"
    },
    {
      "bufferView": 2,
      "byteOffset": 406056,
      "componentType": 5126,
      "count": 5480,
      "max": [
        1.1510889530181885,
        1.902999997138977,
        2.4655020236968994
      ],
      "min": [
        -1.1760809421539307,
        -1.428570032119751,
        0.8350020051002502
      ],
      "type": "VEC3"
    },
    {
      "bufferView": 2,
      "byteOffset": 471816,
      "componentType": 5126,
      "count": 5480,
      "max": [
        1.0,
        1.0,
        1.0
      ],
      "min": [
        -1.0,
        -1.0,
        -1.0
      ],
      "type": "VEC3"
    },
    {
      "bufferView": 3,
      "byteOffset": 270704,
      "componentType": 5126,
      "count": 5480,
      "max": [
        1.0,
        1.0,
        1.0,
        1.0
      ],
      "min": [
        -1.0,
        -1.0,
        -1.0,
        -1.0
      ],
      "type": "VEC4"
    },
    {
      "bufferView": 1,
      "byteOffset": 135352,
      "componentType": 5126,
      "count": 5480,
      "max": [
        1.000499963760376,
        -0.0005000000237487257
      ],
      "min": [
        0.016100000590085983,
        -0.7269999980926514
      ],
      "type": "VEC2"
    },
    {
      "bufferView": 0,
      "byteOffset": 190896,
      "componentType": 5125,
      "count": 16596,
      "type": "SCALAR"
    },
    {
      "bufferView": 2,
      "byteOffset": 537576,
      "componentType": 5126,
      "count": 9026,
      "max": [
        1.4019999504089355,
        2.7809998989105225,
        2.503000020980835
      ],
      "min": [
        -1.440000057220459,
        -1.909000039100647,
        1.6649999618530273
      ],
      "type": "VEC3"
    },
    {
      "bufferView": 2,
      "byteOffset": 645888,
      "componentType": 5126,
      "count": 9026,
      "max": [
        1.0,
        1.0,
        1.0
      ],
      "min": [
        -1.0,
        -1.0,
        -1.0
      ],
      "type": "VEC3"
    },
    {
      "bufferView": 3,
      "byteOffset": 358384,
      "componentType": 5126,
      "count": 9026,
      "max": [
        0.9998733401298523,
        0.999999463558197,
        0.9999832510948181,
        1.0
      ],
      "min": [
        -0.9999988079071045,
        -1.0,
        -0.9999772906303406,
        1.0
      ],
      "type": "VEC4"
    },
    {
      "bufferView": 1,
      "byteOffset": 179192,
      "componentType": 5126,
      "count": 9026,
      "max": [
        5.769499778747559,
        0.015399999916553497
      ],
      "min": [
        -6.024700164794922,
        -0.9323999881744385
      ],
      "type": "VEC2"
    },
    {
      "bufferView": 0,
      "byteOffset": 257280,
      "componentType": 5125,
      "count": 32610,
      "type": "SCALAR"
    },
    {
      "bufferView": 2,
      "byteOffset": 754200,
      "componentType": 5126,
      "count": 278,
      "max": [
        0.9922599792480469,
        2.0645198822021484,
        4.034550189971924
      ],
      "min": [
        -0.9870200157165527,
        2.052419900894165,
        2.7644898891448975
      ],
      "type": "VEC3"
    },
    {
      "bufferView": 2,
      "byteOffset": 757536,
      "componentType": 5126,
      "count": 278,
      "max": [
        0.9440488219261169,
        0.9887235760688782,
        1.0
      ],
      "min": [
        -0.9433006644248962,
        -0.9887201189994812,
        -0.002626005792990327
      ],
      "type": "VEC3"
    },
    {
      "bufferView": 3,
      "byteOffset": 502800,
      "componentType": 5126,
      "count": 278,
      "max": [
        0.0009469885262660682,
        0.0029207062907516956,
        0.9999980926513672,
        1.0
      ],
      "min": [
        -0.35192787647247314,
        -0.9432975649833679,
        0.0,
        1.0
      ],
      "type": "VEC4"
    },
    {
      "bufferView": 1,
      "byteOffset": 251400,
      "componentType": 5126,
      "count": 278,
      "max": [
        0.8605999946594238,
        -0.14480000734329224
      ],
      "min": [
        0.28279998898506165,
        -0.2766999900341034
      ],
      "type": "VEC2"
    },
    {
      "bufferView": 0,
      "byteOffset": 387720,
      "componentType": 5125,
      "count": 756,
      "type": "SCALAR"
    },
    {
      "bufferView": 2,
      "byteOffset": 760872,
      "componentType": 5126,
      "count": 6843,
      "max": [
        0.9263889789581299,
        0.6334540247917175,
        2.9558401107788086
      ],
      "min": [
        0.21039600670337677,
        -1.8748760223388672,
        1.9733250141143799
      ],
      "type": "VEC3"
    },
    {
      "bufferView": 2,
      "byteOffset": 842988,
      "componentType": 5126,
      "count": 6843,
      "max": [
        1.0,
        1.0,
        1.0
      ],
      "min": [
        -1.0,
        -1.0,
        -1.0
      ],
      "type": "VEC3"
    },
    {
      "bufferView": 3,
      "byteOffset": 507248,
      "componentType": 5126,
      "count": 6843,
      "max": [
        1.0,
        1.0,
        1.0,
        1.0
      ],
      "min": [
        -1.0,
        -1.0,
        -1.0,
        -1.0
      ],
      "type": "VEC4"
    },
    {
      "bufferView": 1,
      "byteOffset": 253624,
      "componentType": 5126,
      "count": 6843,
      "max": [
        0.9961000084877014,
        -0.005900000222027302
      ],
      "min": [
        0.005400000140070915,
        -0.9915000200271606
      ],
      "type": "VEC2"
    },
    {
      "bufferView": 0,
      "byteOffset": 390744,
      "componentType": 5125,
      "count": 15972,
      "type": "SCALAR"
    },
    {
      "bufferView": 2,
      "byteOffset": 925104,
      "componentType": 5126,
      "count": 8452,
      "max": [
        1.99399995803833,
        -1.4520000219345093,
        1.659999966621399
      ],
      "min": [
        -1.9780000448226929,
        -3.747999906539917,
        0.8889999985694885
      ],
      "type": "VEC3"
    },
    {
      "bufferView": 2,
      "byteOffset": 1026528,
      "componentType": 5126,
      "count": 8452,
      "max": [
        1.0,
        1.0,
        1.0
      ],
      "min": [
        -1.0,
        -1.0,
        -1.0
      ],
      "type": "VEC3"
    },
    {
      "bufferView": 3,
      "byteOffset": 616736,
      "componentType": 5126,
      "count": 8452,
      "max": [
        0.9999966025352478,
        0.9999567270278931,
        0.9999694228172302,
        1.0
      ],
      "min": [
        -1.0,
        -0.9999953508377075,
        -0.999995231628418,
        -1.0
      ],
      "type": "VEC4"
    },
    {
      "bufferView": 1,
      "byteOffset": 308368,
      "componentType": 5126,
      "count": 8452,
      "max": [
        4.531099796295166,
        0.6830000281333923
      ],
      "min": [
        -3.3506999015808105,
        -1.2379000186920166
      ],
      "type": "VEC2"
    },
    {
      "bufferView": 0,
      "byteOffset": 454632,
      "componentType": 5125,
      "count": 27222,
      "type": "SCALAR"
    },
    {
      "bufferView": 2,
      "byteOffset": 1127952,
      "componentType": 5126,
      "count": 4799,
      "max": [
        1.4199999570846558,
        2.7929999828338623,
        2.4860000610351563
      ],
      "min": [
        -1.4490000009536743,
        -1.8969999551773071,
        1.687000036239624
      ],
      "type": "VEC3"
    },
    {
      "bufferView": 2,
      "byteOffset": 1185540,
      "componentType": 5126,
      "count": 4799,
      "max": [
        1.0,
        1.0,
        1.0
      ],
      "min": [
        -1.0,
        -1.0,
        -0.9999451637268066
      ],
      "type": "VEC3"
    },
    {
      "bufferView": 3,
      "byteOffset": 751968,
      "componentType": 5126,
      "count": 4799,
      "max": [
        0.9998108744621277,
        1.0,
        1.0,
        1.0
      ],
      "min": [
        -0.9999040365219116,
        -1.0,
        -0.9997790455818176,
        1.0
      ],
      "type": "VEC4"
    },
    {
      "bufferView": 1,
      "byteOffset": 375984,
      "componentType": 5126,
      "count": 4799,
      "max": [
        5.638299942016602,
        0.0754999965429306
      ],
      "min": [
        -5.910399913787842,
        -0.9214000105857849
      ],
      "type": "VEC2"
    },
    {
      "bufferView": 0,
      "byteOffset": 563520,
      "componentType": 5125,
      "count": 19863,
      "type": "SCALAR"
    },
    {
      "bufferView": 2,
      "byteOffset": 1243128,
      "componentType": 5126,
      "count": 4686,
      "max": [
        0.4755519926548004,
        0.17006200551986694,
        2.392169952392578
      ],
      "min": [
        -0.46376800537109375,
        -5.697606086730957,
        1.6343499422073364
      ],
      "type": "VEC3"
    },
    {
      "bufferView": 2,
      "byteOffset": 1299360,
      "componentType": 5126,
      "count": 4686,
      "max": [
        1.0,
        1.0,
        1.0
      ],
      "min": [
        -1.0,
        -1.0,
        -1.0
      ],
      "type": "VEC3"
    },
    {
      "bufferView": 3,
      "byteOffset": 828752,
      "componentType": 5126,
      "count": 4686,
      "max": [
        1.0,
        1.0,
        1.0,
        1.0
      ],
      "min": [
        -1.0,
        -1.0,
        -1.0,
        -1.0
      ],
      "type": "VEC4"
    },
    {
      "bufferView": 1,
      "byteOffset": 414376,
      "componentType": 5126,
      "count": 4686,
      "max": [
        0.9984999895095825,
        -0.0031999999191612005
      ],
      "min": [
        0.0020000000949949026,
        -0.9962999820709229
      ],
      "type": "VEC2"
    },
    {
      "bufferView": 0,
      "byteOffset": 642972,
      "componentType": 5125,
      "count": 12555,
      "type": "SCALAR"
    },
    {
      "bufferView": 2,
      "byteOffset": 1355592,
      "componentType": 5126,
      "count": 134,
      "max": [
        0.8960859775543213,
        -3.4735898971557617,
        1.2911800146102905
      ],
      "min": [
        -0.8931350111961365,
        -3.5169100761413574,
        1.1602699756622314
      ],
      "type": "VEC3"
    },
    {
      "bufferView": 2,
      "byteOffset": 1357200,
      "componentType": 5126,
      "count": 134,
      "max": [
        0.9811463952064514,
        0.5085688829421997,
        0.947416365146637
      ],
      "min": [
        -0.9819544553756714,
        -1.0,
        -0.9579297304153442
      ],
      "type": "VEC3"
    },
    {
      "bufferView": 3,
      "byteOffset": 903728,
      "componentType": 5126,
      "count": 134,
      "max": [
        0.4901702105998993,
        0.9759832620620728,
        0.6185877919197083,
        -1.0
      ],
      "min": [
        -0.9999999403953552,
        -0.9789249897003174,
        -0.5397562980651855,
        -1.0
      ],
      "type": "VEC4"
    },
    {
      "bufferView": 1,
      "byteOffset": 451864,
      "componentType": 5126,
      "count": 134,
      "max": [
        0.5789999961853027,
        -0.4221999943256378
      ],
      "min": [
        0.4221999943256378,
        -0.579200029373169
      ],
      "type": "VEC2"
    },
    {
      "bufferView": 0,
      "byteOffset": 693192,
      "componentType": 5125,
      "count": 648,
      "type": "SCALAR"
    },
    {
      "bufferView": 2,
      "byteOffset": 1358808,
      "componentType": 5126,
      "count": 6804,
      "max": [
        1.2739779949188232,
        0.4846769869327545,
        3.0670199394226074
      ],
      "min": [
        0.7674689888954163,
        -0.2543860077857971,
        2.5184919834136963
      ],
      "type": "VEC3"
    },
    {
      "bufferView": 2,
      "byteOffset": 1440456,
      "componentType": 5126,
      "count": 6804,
      "max": [
        1.0,
        1.0,
        1.0
      ],
      "min": [
        -1.0,
        -1.0,
        -1.0
      ],
      "type": "VEC3"
    },
    {
      "bufferView": 3,
      "byteOffset": 905872,
      "componentType": 5126,
      "count": 6804,
      "max": [
        1.0,
        1.0,
        1.0,
        1.0
      ],
      "min": [
        -1.0,
        -1.0,
        -1.0,
        -1.0
      ],
      "type": "VEC4"
    },
    {
      "bufferView": 1,
      "byteOffset": 452936,
      "componentType": 5126,
      "count": 6804,
      "max": [
        0.9962999820709229,
        -0.007799999788403511
      ],
      "min": [
        0.0038999998942017555,
        -0.9962999820709229
      ],
      "type": "VEC2"
    },
    {
      "bufferView": 0,
      "byteOffset": 695784,
      "componentType": 5125,
      "count": 15804,
      "type": "SCALAR"
    },
    {
      "bufferView": 2,
      "byteOffset": 1522104,
      "componentType": 5126,
      "count": 13,
      "max": [
        -0.44729098677635193,
        -0.18615999817848206,
        2.6861460208892822
      ],
      "min": [
        -0.8930130004882813,
        -1.478060007095337,
        2.056551933288574
      ],
      "type": "VEC3"
    },
    {
      "bufferView": 2,
      "byteOffset": 1522260,
      "componentType": 5126,
      "count": 13,
      "max": [
        0.0,
        -0.9685220718383789,
        8.287670789286494e-05
      ],
      "min": [
        -0.24892748892307281,
        -1.0,
        -0.15182985365390778
      ],
      "type": "VEC3"
    },
    {
      "bufferView": 1,
      "byteOffset": 507368,
      "componentType": 5126,
      "count": 13,
      "max": [
        0.9980000257492065,
        -0.6590999960899353
      ],
      "min": [
        -0.0010000000474974513,
        -0.9976000189781189
      ],
      "type": "VEC2"
    },
    {
      "bufferView": 0,
      "byteOffset": 759000,
      "componentType": 5125,
      "count": 21,
      "type": "SCALAR"
    },
    {
      "bufferView": 2,
      "byteOffset": 1522416,
      "componentType": 5126,
      "count": 16721,
      "max": [
        1.4057790040969849,
        2.111449956893921,
        2.7710719108581543
      ],
      "min": [
        -1.4159009456634521,
        0.7394499778747559,
        1.8595720529556274
      ],
      "type": "VEC3"
    },
    {
      "bufferView": 2,
      "byteOffset": 1723068,
      "componentType": 5126,
      "count": 16721,
      "max": [
        0.999995231628418,
        1.0,
        1.0
      ],
      "min": [
        -0.9999949932098389,
        -1.0,
        -1.0
      ],
      "type": "VEC3"
    },
    {
      "bufferView": 3,
      "byteOffset": 1014736,
      "componentType": 5126,
      "count": 16721,
      "max": [
        1.0,
        1.0,
        1.0,
        1.0
      ],
      "min": [
        -1.0,
        -0.9999949932098389,
        -1.0,
        -1.0
      ],
      "type": "VEC4"
    },
    {
      "bufferView": 1,
      "byteOffset": 507472,
      "componentType": 5126,
      "count": 16721,
      "max": [
        0.9983000159263611,
        -0.0017000000225380063
      ],
      "min": [
        0.001500000013038516,
        -0.9987999796867371
      ],
      "type": "VEC2"
    },
    {
      "bufferView": 0,
      "byteOffset": 759084,
      "componentType": 5125,
      "count": 43098,
      "type": "SCALAR"
    },
    {
      "bufferView": 2,
      "byteOffset": 1923720,
      "componentType": 5126,
      "count": 5500,
      "max": [
        1.7231309413909912,
        3.765023946762085,
        1.2868729829788208
      ],
      "min": [
        -1.723013997077942,
        -1.3796980381011963,
        0.7869629859924316
      ],
      "type": "VEC3"
    },
    {
      "bufferView": 2,
      "byteOffset": 1989720,
      "componentType": 5126,
      "count": 5500,
      "max": [
        1.0,
        1.0,
        1.0
      ],
      "min": [
        -1.0,
        -1.0,
        -1.0
      ],
      "type": "VEC3"
    },
    {
      "bufferView": 3,
      "byteOffset": 1282272,
      "componentType": 5126,
      "count": 5500,
      "max": [
        1.0,
        1.0,
        1.0,
        1.0
      ],
      "min": [
        -1.0,
        -1.0,
        -1.0,
        -1.0
      ],
      "type": "VEC4"
    },
    {
      "bufferView": 1,
      "byteOffset": 641240,
      "componentType": 5126,
      "count": 5500,
      "max": [
        0.9984999895095825,
        1.9838999509811401
      ],
      "min": [
        0.001500000013038516,
        -0.9987999796867371
      ],
      "type": "VEC2"
    },
    {
      "bufferView": 0,
      "byteOffset": 931476,
      "componentType": 5125,
      "count": 12564,
      "type": "SCALAR"
    },
    {
      "bufferView": 2,
      "byteOffset": 2055720,
      "componentType": 5126,
      "count": 606,
      "max": [
        0.48337000608444214,
        -1.266070008277893,
        2.365489959716797
      ],
      "min": [
        -0.4855700135231018,
        -2.75888991355896,
        1.8338899612426758
      ],
      "type": "VEC3"
    },
    {
      "bufferView": 2,
      "byteOffset": 2062992,
      "componentType": 5126,
      "count": 606,
      "max": [
        0.9999642372131348,
        0.9999986886978149,
        0.9999356865882874
      ],
      "min": [
        -0.9997293949127197,
        -0.999965250492096,
        -0.9982908964157104
      ],
      "type": "VEC3"
    },
    {
      "bufferView": 3,
      "byteOffset": 1370272,
      "componentType": 5126,
      "count": 606,
      "max": [
        0.999380350112915,
        0.5302163362503052,
        0.9999380707740784,
        1.0
      ],
      "min": [
        -0.9999983310699463,
        -0.7328743934631348,
        -0.9998220205307007,
        1.0
      ],
      "type": "VEC4"
    },
    {
      "bufferView": 1,
      "byteOffset": 685240,
      "componentType": 5126,
      "count": 606,
      "max": [
        0.8125,
        -0.3109000027179718
      ],
      "min": [
        0.24079999327659607,
        -0.9106000065803528
      ],
      "type": "VEC2"
    },
    {
      "bufferView": 0,
      "byteOffset": 981732,
      "componentType": 5125,
      "count": 2292,
      "type": "SCALAR"
    },
    {
      "bufferView": 2,
      "byteOffset": 2070264,
      "componentType": 5126,
      "count": 5795,
      "max": [
        1.9040000438690186,
        3.8540000915527344,
        2.4700000286102295
      ],
      "min": [
        -1.843999981880188,
        -3.747999906539917,
        0.16200000047683716
      ],
      "type": "VEC3"
    },
    {
      "bufferView": 2,
      "byteOffset": 2139804,
      "componentType": 5126,
      "count": 5795,
      "max": [
        1.0,
        1.0,
        1.0
      ],
      "min": [
        -1.0,
        -1.0,
        -1.0
      ],
      "type": "VEC3"
    },
    {
      "bufferView": 3,
      "byteOffset": 1379968,
      "componentType": 5126,
      "count": 5795,
      "max": [
        1.0,
        1.0,
        1.0,
        1.0
      ],
      "min": [
        -1.0,
        -1.0,
        -1.0,
        1.0
      ],
      "type": "VEC4"
    },
    {
      "bufferView": 1,
      "byteOffset": 690088,
      "componentType": 5126,
      "count": 5795,
      "max": [
        0.9939000010490417,
        -0.010300000198185444
      ],
      "min": [
        0.0038999998942017555,
        -0.9962999820709229
      ],
      "type": "VEC2"
    },
    {
      "bufferView": 0,
      "byteOffset": 990900,
      "componentType": 5125,
      "count": 20019,
      "type": "SCALAR"
    },
    {
      "bufferView": 2,
      "byteOffset": 2209344,
      "componentType": 5126,
      "count": 1151,
      "max": [
        -0.6958029866218567,
        -0.15532200038433075,
        2.745945930480957
      ],
      "min": [
        -0.9484930038452148,
        -0.4172019958496094,
        2.4967761039733887
      ],
      "type": "VEC3"
    },
    {
      "bufferView": 2,
      "byteOffset": 2223156,
      "componentType": 5126,
      "count": 1151,
      "max": [
        1.0,
        1.0,
        1.0
      ],
      "min": [
        -1.0,
        -1.0,
        -1.0
      ],
      "type": "VEC3"
    },
    {
      "bufferView": 3,
      "byteOffset": 1472688,
      "componentType": 5126,
      "count": 1151,
      "max": [
        1.0,
        1.0,
        0.9999385476112366,
        1.0
      ],
      "min": [
        -1.0,
        -1.0,
        -0.9952273368835449,
        -1.0
      ],
      "type": "VEC4"
    },
    {
      "bufferView": 1,
      "byteOffset": 736448,
      "componentType": 5126,
      "count": 1151,
      "max": [
        0.9890000224113464,
        -0.3050000071525574
      ],
      "min": [
        0.6320000290870667,
        -0.9717000126838684
      ],
      "type": "VEC2"
    },
    {
      "bufferView": 0,
      "byteOffset": 1070976,
      "componentType": 5125,
      "count": 2766,
      "type": "SCALAR"
    },
    {
      "bufferView": 2,
      "byteOffset": 2236968,
      "componentType": 5126,
      "count": 20096,
      "max": [
        1.2758489847183228,
        2.830090045928955,
        2.63263201713562
      ],
      "min": [
        -1.3106709718704224,
        -1.941480040550232,
        1.64411199092865
      ],
      "type": "VEC3"
    },
    {
      "bufferView": 2,
      "byteOffset": 2478120,
      "componentType": 5126,
      "count": 20096,
      "max": [
        1.0,
        1.0,
        1.0
      ],
      "min": [
        -1.0,
        -1.0,
        -1.0
      ],
      "type": "VEC3"
    },
    {
      "bufferView": 3,
      "byteOffset": 1491104,
      "componentType": 5126,
      "count": 20096,
      "max": [
        1.0,
        1.0,
        1.0,
        1.0
      ],
      "min": [
        -1.0,
        -1.0,
        -1.0,
        -1.0
      ],
      "type": "VEC4"
    },
    {
      "bufferView": 1,
      "byteOffset": 745656,
      "componentType": 5126,
      "count": 20096,
      "max": [
        0.9998000264167786,
        -0.001500000013038516
      ],
      "min": [
        0.00019999999494757503,
        -0.9984999895095825
      ],
      "type": "VEC2"
    },
    {
      "bufferView": 0,
      "byteOffset": 1082040,
      "componentType": 5125,
      "count": 44646,
      "type": "SCALAR"
    },
    {
      "bufferView": 2,
      "byteOffset": 2719272,
      "componentType": 5126,
      "count": 5141,
      "max": [
        0.829846978187561,
        2.6241800785064697,
        2.6230969429016113
      ],
      "min": [
        -1.0046370029449463,
        -0.09449099749326706,
        1.8714449405670166
      ],
      "type": "VEC3"
    },
    {
      "bufferView": 2,
      "byteOffset": 2780964,
      "componentType": 5126,
      "count": 5141,
      "max": [
        1.0,
        0.9998965263366699,
        1.0
      ],
      "min": [
        -1.0,
        -0.9999892115592957,
        -1.0
      ],
      "type": "VEC3"
    },
    {
      "bufferView": 3,
      "byteOffset": 1812640,
      "componentType": 5126,
      "count": 5141,
      "max": [
        1.0,
        1.0,
        1.0,
        1.0
      ],
      "min": [
        -1.0,
        -1.0,
        -1.0,
        -1.0
      ],
      "type": "VEC4"
    },
    {
      "bufferView": 1,
      "byteOffset": 906424,
      "componentType": 5126,
      "count": 5141,
      "max": [
        0.9409000277519226,
        -0.09080000221729279
      ],
      "min": [
        0.2849999964237213,
        -0.9984999895095825
      ],
      "type": "VEC2"
    },
    {
      "bufferView": 0,
      "byteOffset": 1260624,
      "componentType": 5125,
      "count": 13869,
      "type": "SCALAR"
    },
    {
      "bufferView": 2,
      "byteOffset": 2842656,
      "componentType": 5126,
      "count": 10650,
      "max": [
        1.6756720542907715,
        3.5467801094055176,
        1.2512099742889404
      ],
      "min": [
        1.0398720502853394,
        -3.4571359157562256,
        0.07614900171756744
      ],
      "type": "VEC3"
    },
    {
      "bufferView": 2,
      "byteOffset": 2970456,
      "componentType": 5126,
      "count": 10650,
      "max": [
        1.0,
        1.0,
        1.0
      ],
      "min": [
        -1.0,
        -1.0,
        -1.0
      ],
      "type": "VEC3"
    },
    {
      "bufferView": 3,
      "byteOffset": 1894896,
      "componentType": 5126,
      "count": 10650,
      "max": [
        1.0,
        1.0,
        1.0,
        1.0
      ],
      "min": [
        -1.0,
        -1.0,
        -1.0,
        -1.0
      ],
      "type": "VEC4"
    },
    {
      "bufferView": 1,
      "byteOffset": 947552,
      "componentType": 5126,
      "count": 10650,
      "max": [
        0.7705000042915344,
        -0.026399999856948853
      ],
      "min": [
        0.0017000000225380063,
        -0.4652000069618225
      ],
      "type": "VEC2"
    },
    {
      "bufferView": 0,
      "byteOffset": 1316100,
      "componentType": 5125,
      "count": 28515,
      "type": "SCALAR"
    },
    {
      "bufferView": 2,
      "byteOffset": 3098256,
      "componentType": 5126,
      "count": 10506,
      "max": [
        1.7206599712371826,
        4.173419952392578,
        1.8399800062179565
      ],
      "min": [
        -1.7434899806976318,
        -3.570460081100464,
        0.07615000009536743
      ],
      "type": "VEC3"
    },
    {
      "bufferView": 2,
      "byteOffset": 3224328,
      "componentType": 5126,
      "count": 10506,
      "max": [
        1.0,
        1.0,
        1.0
      ],
      "min": [
        -1.0,
        -1.0,
        -1.0
      ],
      "type": "VEC3"
    },
    {
      "bufferView": 3,
      "byteOffset": 2065296,
      "componentType": 5126,
      "count": 10506,
      "max": [
        1.0,
        1.0,
        1.0,
        1.0
      ],
      "min": [
        -1.0,
        -1.0,
        -1.0,
        -1.0
      ],
      "type": "VEC4"
    },
    {
      "bufferView": 1,
      "byteOffset": 1032752,
      "componentType": 5126,
      "count": 10506,
      "max": [
        0.9980000257492065,
        -0.0017000000225380063
      ],
      "min": [
        0.0017000000225380063,
        -0.9581999778747559
      ],
      "type": "VEC2"
    },
    {
      "bufferView": 0,
      "byteOffset": 1430160,
      "componentType": 5125,
      "count": 20160,
      "type": "SCALAR"
    },
    {
      "bufferView": 2,
      "byteOffset": 3350400,
      "componentType": 5126,
      "count": 43649,
      "max": [
        1.7259299755096436,
        4.177249908447266,
        1.8436599969863892
      ],
      "min": [
        -1.7296799421310425,
        -3.570460081100464,
        0.40386998653411865
      ],
      "type": "VEC3"
    },
    {
      "bufferView": 2,
      "byteOffset": 3874188,
      "componentType": 5126,
      "count": 43649,
      "max": [
        1.0,
        1.0,
        1.0
      ],
      "min": [
        -1.0,
        -1.0,
        -1.0
      ],
      "type": "VEC3"
    },
    {
      "bufferView": 3,
      "byteOffset": 2233392,
      "componentType": 5126,
      "count": 43649,
      "max": [
        1.0,
        1.0,
        1.0,
        1.0
      ],
      "min": [
        -1.0,
        -1.0,
        -1.0,
        -1.0
      ],
      "type": "VEC4"
    },
    {
      "bufferView": 1,
      "byteOffset": 1116800,
      "componentType": 5126,
      "count": 43649,
      "max": [
        0.9990000128746033,
        -0.000699999975040555
      ],
      "min": [
        0.001500000013038516,
        -0.9987999796867371
      ],
      "type": "VEC2"
    },
    {
      "bufferView": 0,
      "byteOffset": 1510800,
      "componentType": 5125,
      "count": 65532,
      "type": "SCALAR"
    },
    {
      "bufferView": 2,
      "byteOffset": 4397976,
      "componentType": 5126,
      "count": 46021,
      "max": [
        1.7206599712371826,
        3.9451100826263428,
        1.8502099514007568
      ],
      "min": [
        -1.7434899806976318,
        -3.5857698917388916,
        0.40386998653411865
      ],
      "type": "VEC3"
    },
    {
      "bufferView": 2,
      "byteOffset": 4950228,
      "componentType": 5126,
      "count": 46021,
      "max": [
        1.0,
        1.0,
        1.0
      ],
      "min": [
        -1.0,
        -1.0,
        -1.0
      ],
      "type": "VEC3"
    },
    {
      "bufferView": 3,
      "byteOffset": 2931776,
      "componentType": 5126,
      "count": 46021,
      "max": [
        1.0,
        1.0,
        1.0,
        1.0
      ],
      "min": [
        -1.0,
        -1.0,
        -1.0,
        -1.0
      ],
      "type": "VEC4"
    },
    {
      "bufferView": 1,
      "byteOffset": 1465992,
      "componentType": 5126,
      "count": 46021,
      "max": [
        0.9993000030517578,
        -0.000699999975040555
      ],
      "min": [
        0.001500000013038516,
        -0.9987999796867371
      ],
      "type": "VEC2"
    },
    {
      "bufferView": 0,
      "byteOffset": 1772928,
      "componentType": 5125,
      "count": 65532,
      "type": "SCALAR"
    },
    {
      "bufferView": 2,
      "byteOffset": 5502480,
      "componentType": 5126,
      "count": 10630,
      "max": [
        1.3619530200958252,
        3.5467801094055176,
        1.2512099742889404
      ],
      "min": [
        -1.6756919622421265,
        -3.4571359157562256,
        0.07614900171756744
      ],
      "type": "VEC3"
    },
    {
      "bufferView": 2,
      "byteOffset": 5630040,
      "componentType": 5126,
      "count": 10630,
      "max": [
        1.0,
        1.0,
        1.0
      ],
      "min": [
        -1.0,
        -1.0,
        -1.0
      ],
      "type": "VEC3"
    },
    {
      "bufferView": 3,
      "byteOffset": 3668112,
      "componentType": 5126,
      "count": 10630,
      "max": [
        1.0,
        1.0,
        1.0,
        1.0
      ],
      "min": [
        -1.0,
        -1.0,
        -1.0,
        -1.0
      ],
      "type": "VEC4"
    },
    {
      "bufferView": 1,
      "byteOffset": 1834160,
      "componentType": 5126,
      "count": 10630,
      "max": [
        0.9980000257492065,
        -0.013199999928474426
      ],
      "min": [
        0.0017000000225380063,
        -0.4652000069618225
      ],
      "type": "VEC2"
    },
    {
      "bufferView": 0,
      "byteOffset": 2035056,
      "componentType": 5125,
      "count": 28209,
      "type": "SCALAR"
    },
    {
      "bufferView": 2,
      "byteOffset": 5757600,
      "componentType": 5126,
      "count": 11929,
      "max": [
        1.6900279521942139,
        4.148313045501709,
        1.8413499593734741
      ],
      "min": [
        -1.8178670406341553,
        -3.6815450191497803,
        0.07615000009536743
      ],
      "type": "VEC3"
    },
    {
      "bufferView": 2,
      "byteOffset": 5900748,
      "componentType": 5126,
      "count": 11929,
      "max": [
        1.0,
        1.0,
        1.0
      ],
      "min": [
        -1.0,
        -1.0,
        -1.0
      ],
      "type": "VEC3"
    },
    {
      "bufferView": 3,
      "byteOffset": 3838192,
      "componentType": 5126,
      "count": 11929,
      "max": [
        1.0,
        1.0,
        1.0,
        1.0
      ],
      "min": [
        -1.0,
        -1.0,
        -1.0,
        -1.0
      ],
      "type": "VEC4"
    },
    {
      "bufferView": 1,
      "byteOffset": 1919200,
      "componentType": 5126,
      "count": 11929,
      "max": [
        0.9121000170707703,
        -0.0005000000237487257
      ],
      "min": [
        0.0017000000225380063,
        -0.9983000159263611
      ],
      "type": "VEC2"
    },
    {
      "bufferView": 0,
      "byteOffset": 2147892,
      "componentType": 5125,
      "count": 30084,
      "type": "SCALAR"
    },
    {
      "bufferView": 2,
      "byteOffset": 6043896,
      "componentType": 5126,
      "count": 10772,
      "max": [
        1.8194559812545776,
        3.3784849643707275,
        1.673084020614624
      ],
      "min": [
        -1.8195949792861938,
        -3.528510093688965,
        0.3298240005970001
      ],
      "type": "VEC3"
    },
    {
      "bufferView": 2,
      "byteOffset": 6173160,
      "componentType": 5126,
      "count": 10772,
      "max": [
        1.0,
        1.0,
        1.0
      ],
      "min": [
        -1.0,
        -1.0,
        -1.0
      ],
      "type": "VEC3"
    },
    {
      "bufferView": 3,
      "byteOffset": 4029056,
      "componentType": 5126,
      "count": 10772,
      "max": [
        1.0,
        1.0,
        1.0,
        1.0
      ],
      "min": [
        -1.0,
        -1.0,
        -1.0,
        -1.0
      ],
      "type": "VEC4"
    },
    {
      "bufferView": 1,
      "byteOffset": 2014632,
      "componentType": 5126,
      "count": 10772,
      "max": [
        0.9980000257492065,
        -0.013199999928474426
      ],
      "min": [
        0.0010000000474974513,
        -0.9998000264167786
      ],
      "type": "VEC2"
    },
    {
      "bufferView": 0,
      "byteOffset": 2268228,
      "componentType": 5125,
      "count": 26505,
      "type": "SCALAR"
    },
    {
      "bufferView": 2,
      "byteOffset": 6302424,
      "componentType": 5126,
      "count": 7151,
      "max": [
        1.6843700408935547,
        3.8695499897003174,
        1.4704400300979614
      ],
      "min": [
        -1.69016695022583,
        -3.6803340911865234,
        0.5921609997749329
      ],
      "type": "VEC3"
    },
    {
      "bufferView": 2,
      "byteOffset": 6388236,
      "componentType": 5126,
      "count": 7151,
      "max": [
        1.0,
        1.0,
        1.0
      ],
      "min": [
        -1.0,
        -1.0,
        -1.0
      ],
      "type": "VEC3"
    },
    {
      "bufferView": 3,
      "byteOffset": 4201408,
      "componentType": 5126,
      "count": 7151,
      "max": [
        1.0,
        1.0,
        1.0,
        1.0
      ],
      "min": [
        -1.0,
        -1.0,
        -1.0,
        -1.0
      ],
      "type": "VEC4"
    },
    {
      "bufferView": 1,
      "byteOffset": 2100808,
      "componentType": 5126,
      "count": 7151,
      "max": [
        0.9998000264167786,
        -0.050999999046325684
      ],
      "min": [
        0.0010000000474974513,
        -0.9998000264167786
      ],
      "type": "VEC2"
    },
    {
      "bufferView": 0,
      "byteOffset": 2374248,
      "componentType": 5125,
      "count": 17877,
      "type": "SCALAR"
    },
    {
      "bufferView": 2,
      "byteOffset": 6474048,
      "componentType": 5126,
      "count": 66,
      "max": [
        0.8965359926223755,
        -3.511359930038452,
        1.29243004322052
      ],
      "min": [
        -0.8951849937438965,
        -3.5295000076293945,
        1.159019947052002
      ],
      "type": "VEC3"
    },
    {
      "bufferView": 2,
      "byteOffset": 6474840,
      "componentType": 5126,
      "count": 66,
      "max": [
        0.5186756253242493,
        -0.8539897799491882,
        0.5172038674354553
      ],
      "min": [
        -0.5186001062393188,
        -1.0,
        -0.5192438364028931
      ],
      "type": "VEC3"
    },
    {
      "bufferView": 3,
      "byteOffset": 4315824,
      "componentType": 5126,
      "count": 66,
      "max": [
        -0.8547833561897278,
        0.5189610719680786,
        0.055112387984991074,
        -1.0
      ],
      "min": [
        -0.9999998211860657,
        -0.5189638137817383,
        -0.04410764202475548,
        -1.0
      ],
      "type": "VEC4"
    },
    {
      "bufferView": 1,
      "byteOffset": 2158016,
      "componentType": 5126,
      "count": 66,
      "max": [
        0.989300012588501,
        -0.017100000753998756
      ],
      "min": [
        0.5218999981880188,
        -0.484499990940094
      ],
      "type": "VEC2"
    },
    {
      "bufferView": 0,
      "byteOffset": 2445756,
      "componentType": 5125,
      "count": 312,
      "type": "SCALAR"
    }
  ],
  "asset": {
    "extras": {
      "author": "Jeyhun1985 (https://sketchfab.com/Jeyhun1985)",
      "license": "CC-BY-4.0 (http://creativecommons.org/licenses/by/4.0/)",
      "source": "https://sketchfab.com/3d-models/leopard-2a4-otco-d914bf65a41044db9b24350d0d777d26",
      "title": "Leopard 2A4 OTCO"
    },
    "generator": "Sketchfab-17.17.0",
    "version": "2.0"
  },
  "bufferViews": [
    {
      "buffer": 0,
      "byteLength": 2447004,
      "name": "floatBufferViews",
      "target": 34963
    },
    {
      "buffer": 0,
      "byteLength": 2158544,
      "byteOffset": 2447004,
      "byteStride": 8,
      "name": "floatBufferViews",
      "target": 34962
    },
    {
      "buffer": 0,
      "byteLength": 6475632,
      "byteOffset": 4605548,
      "byteStride": 12,
      "name": "floatBufferViews",
      "target": 34962
    },
    {
      "buffer": 0,
      "byteLength": 4316880,
      "byteOffset": 11081180,
      "byteStride": 16,
      "name": "floatBufferViews",
      "target": 34962
    }
  ],
  "buffers": [
    {
      "byteLength": 15398060,
      "uri": "scene.bin"
    }
  ],
  "images": [
    {
      "uri": "textures/0563235f-5a37-4a5c-82c1-4282eec1e329_baseColor.jpeg"
    },
    {
      "uri": "textures/0563235f-5a37-4a5c-82c1-4282eec1e329_metallicRoughness.png"
    },
    {
      "uri": "textures/0563235f-5a37-4a5c-82c1-4282eec1e329_normal.png"
    },
    {
      "uri": "textures/1c3f874f-6a49-424f-8ca6-9226c2028c08_baseColor.jpeg"
    },
    {
      "uri": "textures/1c3f874f-6a49-424f-8ca6-9226c2028c08_metallicRoughness.png"
    },
    {
      "uri": "textures/1c3f874f-6a49-424f-8ca6-9226c2028c08_normal.png"
    },
    {
      "uri": "textures/1d04ead9-4133-4bc4-8830-8d19a506838e_baseColor.jpeg"
    },
    {
      "uri": "textures/1d04ead9-4133-4bc4-8830-8d19a506838e_metallicRoughness.png"
    },
    {
      "uri": "textures/1d04ead9-4133-4bc4-8830-8d19a506838e_normal.png"
    },
    {
      "uri": "textures/42d54fa2-9f08-4be6-bbc0-6f39a412fc8d_baseColor.jpeg"
    },
    {
      "uri": "textures/42d54fa2-9f08-4be6-bbc0-6f39a412fc8d_metallicRoughness.png"
    },
    {
      "uri": "textures/42d54fa2-9f08-4be6-bbc0-6f39a412fc8d_emissive.jpeg"
    },
    {
      "uri": "textures/42d54fa2-9f08-4be6-bbc0-6f39a412fc8d_normal.png"
    },
    {
      "uri": "textures/56439e31-750f-4850-9372-64082906b74c_baseColor.jpeg"
    },
    {
      "uri": "textures/56439e31-750f-4850-9372-64082906b74c_metallicRoughness.png"
    },
    {
      "uri": "textures/56439e31-750f-4850-9372-64082906b74c_normal.png"
    },
    {
      "uri": "textures/5c3ff776-b63e-456c-a0d1-24caccbd6740_baseColor.png"
    },
    {
      "uri": "textures/5c3ff776-b63e-456c-a0d1-24caccbd6740_metallicRoughness.png"
    },
    {
      "uri": "textures/5c3ff776-b63e-456c-a0d1-24caccbd6740_normal.png"
    },
    {
      "uri": "textures/6317cf2c-c1f9-40fa-b807-102ac7c6e9b4_baseColor.png"
    },
    {
      "uri": "textures/6317cf2c-c1f9-40fa-b807-102ac7c6e9b4_metallicRoughness.png"
    },
    {
      "uri": "textures/6317cf2c-c1f9-40fa-b807-102ac7c6e9b4_normal.png"
    },
    {
      "uri": "textures/6584e66c-a3c0-4b43-a4b0-635d68804d2a_baseColor.png"
    },
    {
      "uri": "textures/6584e66c-a3c0-4b43-a4b0-635d68804d2a_metallicRoughness.png"
    },
    {
      "uri": "textures/6584e66c-a3c0-4b43-a4b0-635d68804d2a_emissive.jpeg"
    },
    {
      "uri": "textures/6584e66c-a3c0-4b43-a4b0-635d68804d2a_normal.png"
    },
    {
      "uri": "textures/79b1fe14-d078-4b65-9417-a6db493ab79a_baseColor.jpeg"
    },
    {
      "uri": "textures/79b1fe14-d078-4b65-9417-a6db493ab79a_metallicRoughness.png"
    },
    {
      "uri": "textures/79b1fe14-d078-4b65-9417-a6db493ab79a_normal.png"
    },
    {
      "uri": "textures/7ac76496-39be-4fff-b0e7-56b19b242603_baseColor.png"
    },
    {
      "uri": "textures/7ac76496-39be-4fff-b0e7-56b19b242603_metallicRoughness.png"
    },
    {
      "uri": "textures/7ac76496-39be-4fff-b0e7-56b19b242603_normal.png"
    },
    {
      "uri": "textures/7b69f7cf-f4df-4764-9bcc-9a8505070463_baseColor.png"
    },
    {
      "uri": "textures/831bc7fa-d366-4168-977a-6afec55b6674_baseColor.jpeg"
    },
    {
      "uri": "textures/831bc7fa-d366-4168-977a-6afec55b6674_metallicRoughness.png"
    },
    {
      "uri": "textures/831bc7fa-d366-4168-977a-6afec55b6674_emissive.jpeg"
    },
    {
      "uri": "textures/831bc7fa-d366-4168-977a-6afec55b6674_normal.png"
    },
    {
      "uri": "textures/8927c885-0e36-4ea2-8d6f-2f80f5480f58_baseColor.jpeg"
    },
    {
      "uri": "textures/8927c885-0e36-4ea2-8d6f-2f80f5480f58_metallicRoughness.png"
    },
    {
      "uri": "textures/8927c885-0e36-4ea2-8d6f-2f80f5480f58_normal.png"
    },
    {
      "uri": "textures/8c0f7f1e-14b0-4046-98d2-a354594c0f3e_baseColor.jpeg"
    },
    {
      "uri": "textures/8c0f7f1e-14b0-4046-98d2-a354594c0f3e_metallicRoughness.png"
    },
    {
      "uri": "textures/8c0f7f1e-14b0-4046-98d2-a354594c0f3e_emissive.jpeg"
    },
    {
      "uri": "textures/8c0f7f1e-14b0-4046-98d2-a354594c0f3e_normal.png"
    },
    {
      "uri": "textures/8f9dfca7-dbbb-457c-8682-25d81e9eeeab_baseColor.jpeg"
    },
    {
      "uri": "textures/8f9dfca7-dbbb-457c-8682-25d81e9eeeab_emissive.jpeg"
    },
    {
      "uri": "textures/a598baff-51bd-4557-9121-d02013eaeb7e_emissive.jpeg"
    },
    {
      "uri": "textures/abd44e19-12de-47b9-b077-1d188472d1e3_metallicRoughness.png"
    },
    {
      "uri": "textures/abd44e19-12de-47b9-b077-1d188472d1e3_emissive.jpeg"
    },
    {
      "uri": "textures/ae780797-b9e0-4a06-9c6b-1f5f5a58df74_metallicRoughness.png"
    },
    {
      "uri": "textures/b4c21438-dc7f-47c9-9f0b-bd61fdd273d7_baseColor.jpeg"
    },
    {
      "uri": "textures/b4c21438-dc7f-47c9-9f0b-bd61fdd273d7_metallicRoughness.png"
    },
    {
      "uri": "textures/b4c21438-dc7f-47c9-9f0b-bd61fdd273d7_normal.png"
    },
    {
      "uri": "textures/ba3543c8-8c1b-404c-ad61-0073494b509a_baseColor.png"
    },
    {
      "uri": "textures/ba3543c8-8c1b-404c-ad61-0073494b509a_metallicRoughness.png"
    },
    {
      "uri": "textures/ba3543c8-8c1b-404c-ad61-0073494b509a_normal.png"
    },
    {
      "uri": "textures/ced4a5d6-a42d-4e8e-a295-15c98d988a01_baseColor.png"
    }
  ],
  "materials": [
    {
      "doubleSided": true,
      "name": "0563235f-5a37-4a5c-82c1-4282eec1e329",
      "normalTexture": {
        "index": 2
      },
      "pbrMetallicRoughness": {
        "baseColorTexture": {
          "index": 0
        },
        "metallicFactor": 0.05,
        "metallicRoughnessTexture": {
          "index": 1
        },
        "roughnessFactor": 0.4
      }
    },
    {
      "doubleSided": true,
      "emissiveFactor": [
        0.2,
        0.2,
        0.2
      ],
      "emissiveTexture": {
        "index": 3
      },
      "name": "1c3f874f-6a49-424f-8ca6-9226c2028c08",
      "normalTexture": {
        "index": 5
      },
      "occlusionTexture": {
        "index": 4
      },
      "pbrMetallicRoughness": {
        "baseColorTexture": {
          "index": 3
        },
        "metallicRoughnessTexture": {
          "index": 4
        },
        "roughnessFactor": 0.4
      }
    },
    {
      "doubleSided": true,
      "name": "1d04ead9-4133-4bc4-8830-8d19a506838e",
      "normalTexture": {
        "index": 8
      },
      "occlusionTexture": {
        "index": 7
      },
      "pbrMetallicRoughness": {
        "baseColorTexture": {
          "index": 6
        },
        "metallicRoughnessTexture": {
          "index": 7
        },
        "roughnessFactor": 0.5
      }
    },
    {
      "doubleSided": true,
      "emissiveFactor": [
        0.25,
        0.25,
        0.25
      ],
      "emissiveTexture": {
        "index": 11
      },
      "name": "42d54fa2-9f08-4be6-bbc0-6f39a412fc8d",
      "normalTexture": {
        "index": 12
      },
      "occlusionTexture": {
        "index": 10
      },
      "pbrMetallicRoughness": {
        "baseColorTexture": {
          "index": 9
        },
        "metallicRoughnessTexture": {
          "index": 10
        },
        "roughnessFactor": 0.45
      }
    },
    {
      "doubleSided": true,
      "name": "56439e31-750f-4850-9372-64082906b74c",
      "normalTexture": {
        "index": 15
      },
      "occlusionTexture": {
        "index": 14
      },
      "pbrMetallicRoughness": {
        "baseColorTexture": {
          "index": 13
        },
        "metallicRoughnessTexture": {
          "index": 14
        },
        "roughnessFactor": 0.5
      }
    },
    {
      "alphaMode": "BLEND",
      "doubleSided": true,
      "name": "5c3ff776-b63e-456c-a0d1-24caccbd6740",
      "normalTexture": {
        "index": 18
      },
      "pbrMetallicRoughness": {
        "baseColorFactor": [
          1.0,
          1.0,
          1.0,
          0.0
        ],
        "baseColorTexture": {
          "index": 16
        },
        "metallicFactor": 0.05,
        "metallicRoughnessTexture": {
          "index": 17
        },
        "roughnessFactor": 0.8825145645701
      }
    },
    {
      "alphaMode": "BLEND",
      "doubleSided": true,
      "name": "6317cf2c-c1f9-40fa-b807-102ac7c6e9b4",
      "normalTexture": {
        "index": 21
      },
      "occlusionTexture": {
        "index": 20
      },
      "pbrMetallicRoughness": {
        "baseColorTexture": {
          "index": 19
        },
        "metallicRoughnessTexture": {
          "index": 20
        },
        "roughnessFactor": 0.5
      }
    },
    {
      "alphaMode": "BLEND",
      "doubleSided": true,
      "emissiveFactor": [
        0.2,
        0.2,
        0.2
      ],
      "emissiveTexture": {
        "index": 24
      },
      "name": "6584e66c-a3c0-4b43-a4b0-635d68804d2a",
      "normalTexture": {
        "index": 25
      },
      "occlusionTexture": {
        "index": 23
      },
      "pbrMetallicRoughness": {
        "baseColorTexture": {
          "index": 22
        },
        "metallicRoughnessTexture": {
          "index": 23
        },
        "roughnessFactor": 0.4
      }
    },
    {
      "alphaMode": "BLEND",
      "doubleSided": true,
      "name": "79b1fe14-d078-4b65-9417-a6db493ab79a",
      "normalTexture": {
        "index": 28
      },
      "occlusionTexture": {
        "index": 27
      },
      "pbrMetallicRoughness": {
        "baseColorFactor": [
          1.0,
          1.0,
          1.0,
          0.5
        ],
        "baseColorTexture": {
          "index": 26
        },
        "metallicRoughnessTexture": {
          "index": 27
        },
        "roughnessFactor": 0.30000000000000004
      }
    },
    {
      "alphaMode": "BLEND",
      "doubleSided": true,
      "name": "7ac76496-39be-4fff-b0e7-56b19b242603",
      "normalTexture": {
        "index": 31
      },
      "occlusionTexture": {
        "index": 30
      },
      "pbrMetallicRoughness": {
        "baseColorTexture": {
          "index": 29
        },
        "metallicRoughnessTexture": {
          "index": 30
        },
        "roughnessFactor": 0.4
      }
    },
    {
      "alphaMode": "BLEND",
      "doubleSided": true,
      "name": "7b69f7cf-f4df-4764-9bcc-9a8505070463",
      "pbrMetallicRoughness": {
        "baseColorTexture": {
          "index": 32
        },
        "roughnessFactor": 0.0
      }
    },
    {
      "doubleSided": true,
      "emissiveFactor": [
        0.2,
        0.2,
        0.2
      ],
      "emissiveTexture": {
        "index": 35
      },
      "name": "831bc7fa-d366-4168-977a-6afec55b6674",
      "normalTexture": {
        "index": 36
      },
      "occlusionTexture": {
        "index": 34
      },
      "pbrMetallicRoughness": {
        "baseColorTexture": {
          "index": 33
        },
        "metallicRoughnessTexture": {
          "index": 34
        },
        "roughnessFactor": 0.5
      }
    },
    {
      "doubleSided": true,
      "emissiveFactor": [
        0.1,
        0.1,
        0.1
      ],
      "emissiveTexture": {
        "index": 37
      },
      "name": "8927c885-0e36-4ea2-8d6f-2f80f5480f58",
      "normalTexture": {
        "index": 39
      },
      "occlusionTexture": {
        "index": 38
      },
      "pbrMetallicRoughness": {
        "baseColorTexture": {
          "index": 37
        },
        "metallicRoughnessTexture": {
          "index": 38
        },
        "roughnessFactor": 0.3
      }
    },
    {
      "doubleSided": true,
      "emissiveFactor": [
        0.2,
        0.2,
        0.2
      ],
      "emissiveTexture": {
        "index": 42
      },
      "name": "8c0f7f1e-14b0-4046-98d2-a354594c0f3e",
      "normalTexture": {
        "index": 43
      },
      "occlusionTexture": {
        "index": 41
      },
      "pbrMetallicRoughness": {
        "baseColorTexture": {
          "index": 40
        },
        "metallicRoughnessTexture": {
          "index": 41
        },
        "roughnessFactor": 0.5
      }
    },
    {
      "doubleSided": true,
      "emissiveFactor": [
        0.25,
        0.25,
        0.25
      ],
      "emissiveTexture": {
        "index": 45
      },
      "name": "8f9dfca7-dbbb-457c-8682-25d81e9eeeab",
      "normalTexture": {
        "index": 43
      },
      "occlusionTexture": {
        "index": 41
      },
      "pbrMetallicRoughness": {
        "baseColorTexture": {
          "index": 44
        },
        "metallicRoughnessTexture": {
          "index": 41
        },
        "roughnessFactor": 0.5
      }
    },
    {
      "doubleSided": true,
      "emissiveFactor": [
        0.25,
        0.25,
        0.25
      ],
      "emissiveTexture": {
        "index": 46
      },
      "name": "a598baff-51bd-4557-9121-d02013eaeb7e",
      "normalTexture": {
        "index": 8
      },
      "occlusionTexture": {
        "index": 7
      },
      "pbrMetallicRoughness": {
        "baseColorTexture": {
          "index": 6
        },
        "metallicRoughnessTexture": {
          "index": 7
        },
        "roughnessFactor": 0.5
      }
    },
    {
      "doubleSided": true,
      "emissiveFactor": [
        0.2,
        0.2,
        0.2
      ],
      "emissiveTexture": {
        "index": 48
      },
      "name": "abd44e19-12de-47b9-b077-1d188472d1e3",
      "normalTexture": {
        "index": 2
      },
      "occlusionTexture": {
        "index": 47
      },
      "pbrMetallicRoughness": {
        "baseColorTexture": {
          "index": 0
        },
        "metallicRoughnessTexture": {
          "index": 47
        },
        "roughnessFactor": 0.5
      }
    },
    {
      "doubleSided": true,
      "name": "ae780797-b9e0-4a06-9c6b-1f5f5a58df74",
      "normalTexture": {
        "index": 12
      },
      "pbrMetallicRoughness": {
        "baseColorTexture": {
          "index": 9
        },
        "metallicRoughnessTexture": {
          "index": 49
        },
        "roughnessFactor": 0.45
      }
    },
    {
      "alphaMode": "BLEND",
      "doubleSided": true,
      "name": "afacb3f3-0e86-47dd-a99e-cf3a8056cea7",
      "normalTexture": {
        "index": 21
      },
      "occlusionTexture": {
        "index": 20
      },
      "pbrMetallicRoughness": {
        "baseColorTexture": {
          "index": 19
        },
        "metallicRoughnessTexture": {
          "index": 20
        },
        "roughnessFactor": 0.5
      }
    },
    {
      "alphaMode": "BLEND",
      "doubleSided": true,
      "name": "b4c21438-dc7f-47c9-9f0b-bd61fdd273d7",
      "normalTexture": {
        "index": 52
      },
      "pbrMetallicRoughness": {
        "baseColorFactor": [
          1.0,
          1.0,
          1.0,
          0.0
        ],
        "baseColorTexture": {
          "index": 50
        },
        "metallicFactor": 0.05,
        "metallicRoughnessTexture": {
          "index": 51
        },
        "roughnessFactor": 0.8825145645701
      }
    },
    {
      "alphaMode": "BLEND",
      "doubleSided": true,
      "name": "ba3543c8-8c1b-404c-ad61-0073494b509a",
      "normalTexture": {
        "index": 55
      },
      "pbrMetallicRoughness": {
        "baseColorFactor": [
          1.0,
          1.0,
          1.0,
          0.0
        ],
        "baseColorTexture": {
          "index": 53
        },
        "metallicFactor": 0.05,
        "metallicRoughnessTexture": {
          "index": 54
        },
        "roughnessFactor": 0.8825145645701
      }
    },
    {
      "alphaMode": "BLEND",
      "doubleSided": true,
      "name": "ced4a5d6-a42d-4e8e-a295-15c98d988a01",
      "normalTexture": {
        "index": 28
      },
      "occlusionTexture": {
        "index": 27
      },
      "pbrMetallicRoughness": {
        "baseColorTexture": {
          "index": 56
        },
        "metallicRoughnessTexture": {
          "index": 27
        },
        "roughnessFactor": 0.09999999999999998
      }
    }
  ],
  "meshes": [
    {
      "name": "Object_0",
      "primitives": [
        {
          "attributes": {
            "NORMAL": 1,
            "POSITION": 0,
            "TANGENT": 2,
            "TEXCOORD_0": 3
          },
          "indices": 4,
          "material": 4,
          "mode": 4
        }
      ]
    },
    {
      "name": "Object_1",
      "primitives": [
        {
          "attributes": {
            "NORMAL": 6,
            "POSITION": 5,
            "TANGENT": 7,
            "TEXCOORD_0": 8
          },
          "indices": 9,
          "material": 2,
          "mode": 4
        }
      ]
    },
    {
      "name": "Object_2",
      "primitives": [
        {
          "attributes": {
            "NORMAL": 11,
            "POSITION": 10,
            "TANGENT": 12,
            "TEXCOORD_0": 13
          },
          "indices": 14,
          "material": 6,
          "mode": 4
        }
      ]
    },
    {
      "name": "Object_3",
      "primitives": [
        {
          "attributes": {
            "NORMAL": 16,
            "POSITION": 15,
            "TANGENT": 17,
            "TEXCOORD_0": 18
          },
          "indices": 19,
          "material": 7,
          "mode": 4
        }
      ]
    },
    {
      "name": "Object_4",
      "primitives": [
        {
          "attributes": {
            "NORMAL": 21,
            "POSITION": 20,
            "TANGENT": 22,
            "TEXCOORD_0": 23
          },
          "indices": 24,
          "material": 9,
          "mode": 4
        }
      ]
    },
    {
      "name": "Object_5",
      "primitives": [
        {
          "attributes": {
            "NORMAL": 26,
            "POSITION": 25,
            "TANGENT": 27,
            "TEXCOORD_0": 28
          },
          "indices": 29,
          "material": 12,
          "mode": 4
        }
      ]
    },
    {
      "name": "Object_6",
      "primitives": [
        {
          "attributes": {
            "NORMAL": 31,
            "POSITION": 30,
            "TANGENT": 32,
            "TEXCOORD_0": 33
          },
          "indices": 34,
          "material": 18,
          "mode": 4
        }
      ]
    },
    {
      "name": "Object_7",
      "primitives": [
        {
          "attributes": {
            "NORMAL": 36,
            "POSITION": 35,
            "TANGENT": 37,
            "TEXCOORD_0": 38
          },
          "indices": 39,
          "material": 13,
          "mode": 4
        }
      ]
    },
    {
      "name": "Object_8",
      "primitives": [
        {
          "attributes": {
            "NORMAL": 41,
            "POSITION": 40,
            "TANGENT": 42,
            "TEXCOORD_0": 43
          },
          "indices": 44,
          "material": 20,
          "mode": 4
        }
      ]
    },
    {
      "name": "Object_9",
      "primitives": [
        {
          "attributes": {
            "NORMAL": 46,
            "POSITION": 45,
            "TANGENT": 47,
            "TEXCOORD_0": 48
          },
          "indices": 49,
          "material": 0,
          "mode": 4
        }
      ]
    },
    {
      "name": "Object_10",
      "primitives": [
        {
          "attributes": {
            "NORMAL": 51,
            "POSITION": 50,
            "TANGENT": 52,
            "TEXCOORD_0": 53
          },
          "indices": 54,
          "material": 1,
          "mode": 4
        }
      ]
    },
    {
      "name": "Object_11",
      "primitives": [
        {
          "attributes": {
            "NORMAL": 56,
            "POSITION": 55,
            "TANGENT": 57,
            "TEXCOORD_0": 58
          },
          "indices": 59,
          "material": 5,
          "mode": 4
        }
      ]
    },
    {
      "name": "Object_12",
      "primitives": [
        {
          "attributes": {
            "NORMAL": 61,
            "POSITION": 60,
            "TANGENT": 62,
            "TEXCOORD_0": 63
          },
          "indices": 64,
          "material": 5,
          "mode": 4
        }
      ]
    },
    {
      "name": "Object_13",
      "primitives": [
        {
          "attributes": {
            "NORMAL": 66,
            "POSITION": 65,
            "TANGENT": 67,
            "TEXCOORD_0": 68
          },
          "indices": 69,
          "material": 3,
          "mode": 4
        }
      ]
    },
    {
      "name": "Object_14",
      "primitives": [
        {
          "attributes": {
            "NORMAL": 71,
            "POSITION": 70,
            "TANGENT": 72,
            "TEXCOORD_0": 73
          },
          "indices": 74,
          "material": 8,
          "mode": 4
        }
      ]
    },
    {
      "name": "Object_15",
      "primitives": [
        {
          "attributes": {
            "NORMAL": 76,
            "POSITION": 75,
            "TANGENT": 77,
            "TEXCOORD_0": 78
          },
          "indices": 79,
          "material": 11,
          "mode": 4
        }
      ]
    },
    {
      "name": "Object_16",
      "primitives": [
        {
          "attributes": {
            "NORMAL": 81,
            "POSITION": 80,
            "TEXCOORD_0": 82
          },
          "indices": 83,
          "material": 10,
          "mode": 4
        }
      ]
    },
    {
      "name": "Object_17",
      "primitives": [
        {
          "attributes": {
            "NORMAL": 85,
            "POSITION": 84,
            "TANGENT": 86,
            "TEXCOORD_0": 87
          },
          "indices": 88,
          "material": 16,
          "mode": 4
        }
      ]
    },
    {
      "name": "Object_18",
      "primitives": [
        {
          "attributes": {
            "NORMAL": 90,
            "POSITION": 89,
            "TANGENT": 91,
            "TEXCOORD_0": 92
          },
          "indices": 93,
          "material": 16,
          "mode": 4
        }
      ]
    },
    {
      "name": "Object_19",
      "primitives": [
        {
          "attributes": {
            "NORMAL": 95,
            "POSITION": 94,
            "TANGENT": 96,
            "TEXCOORD_0": 97
          },
          "indices": 98,
          "material": 17,
          "mode": 4
        }
      ]
    },
    {
      "name": "Object_20",
      "primitives": [
        {
          "attributes": {
            "NORMAL": 100,
            "POSITION": 99,
            "TANGENT": 101,
            "TEXCOORD_0": 102
          },
          "indices": 103,
          "material": 19,
          "mode": 4
        }
      ]
    },
    {
      "name": "Object_21",
      "primitives": [
        {
          "attributes": {
            "NORMAL": 105,
            "POSITION": 104,
            "TANGENT": 106,
            "TEXCOORD_0": 107
          },
          "indices": 108,
          "material": 14,
          "mode": 4
        }
      ]
    },
    {
      "name": "Object_22",
      "primitives": [
        {
          "attributes": {
            "NORMAL": 110,
            "POSITION": 109,
            "TANGENT": 111,
            "TEXCOORD_0": 112
          },
          "indices": 113,
          "material": 14,
          "mode": 4
        }
      ]
    },
    {
      "name": "Object_23",
      "primitives": [
        {
          "attributes": {
            "NORMAL": 115,
            "POSITION": 114,
            "TANGENT": 116,
            "TEXCOORD_0": 117
          },
          "indices": 118,
          "material": 14,
          "mode": 4
        }
      ]
    },
    {
      "name": "Object_24",
      "primitives": [
        {
          "attributes": {
            "NORMAL": 120,
            "POSITION": 119,
            "TANGENT": 121,
            "TEXCOORD_0": 122
          },
          "indices": 123,
          "material": 15,
          "mode": 4
        }
      ]
    },
    {
      "name": "Object_25",
      "primitives": [
        {
          "attributes": {
            "NORMAL": 125,
            "POSITION": 124,
            "TANGENT": 126,
            "TEXCOORD_0": 127
          },
          "indices": 128,
          "material": 15,
          "mode": 4
        }
      ]
    },
    {
      "name": "Object_26",
      "primitives": [
        {
          "attributes": {
            "NORMAL": 130,
            "POSITION": 129,
            "TANGENT": 131,
            "TEXCOORD_0": 132
          },
          "indices": 133,
          "material": 15,
          "mode": 4
        }
      ]
    },
    {
      "name": "Object_27",
      "primitives": [
        {
          "attributes": {
            "NORMAL": 135,
            "POSITION": 134,
            "TANGENT": 136,
            "TEXCOORD_0": 137
          },
          "indices": 138,
          "material": 15,
          "mode": 4
        }
      ]
    },
    {
      "name": "Object_28",
      "primitives": [
        {
          "attributes": {
            "NORMAL": 140,
            "POSITION": 139,
            "TANGENT": 141,
            "TEXCOORD_0": 142
          },
          "indices": 143,
          "material": 15,
          "mode": 4
        }
      ]
    },
    {
      "name": "Object_29",
      "primitives": [
        {
          "attributes": {
            "NORMAL": 145,
            "POSITION": 144,
            "TANGENT": 146,
            "TEXCOORD_0": 147
          },
          "indices": 148,
          "material": 15,
          "mode": 4
        }
      ]
    },
    {
      "name": "Object_30",
      "primitives": [
        {
          "attributes": {
            "NORMAL": 150,
            "POSITION": 149,
            "TANGENT": 151,
            "TEXCOORD_0": 152
          },
          "indices": 153,
          "material": 15,
          "mode": 4
        }
      ]
    },
    {
      "name": "Object_31",
      "primitives": [
        {
          "attributes": {
            "NORMAL": 155,
            "POSITION": 154,
            "TANGENT": 156,
            "TEXCOORD_0": 157
          },
          "indices": 158,
          "material": 15,
          "mode": 4
        }
      ]
    },
    {
      "name": "Object_32",
      "primitives": [
        {
          "attributes": {
            "NORMAL": 160,
            "POSITION": 159,
            "TANGENT": 161,
            "TEXCOORD_0": 162
          },
          "indices": 163,
          "material": 21,
          "mode": 4
        }
      ]
    }
  ],
  "nodes": [
    {
      "children": [
        1
      ],
      "matrix": [
        1.0,
        0.0,
        0.0,
        0.0,
        0.0,
        2.220446049250313e-16,
        -1.0,
        0.0,
        0.0,
        1.0,
        2.220446049250313e-16,
        0.0,
        0.0,
        0.0,
        0.0,
        1.0
      ],
      "name": "Sketchfab_model"
    },
    {
      "children": [
        2,
        3,
        4,
        5,
        6,
        7,
        8,
        9,
        10,
        11,
        12,
        13,
        14,
        15,
        16,
        17,
        18,
        19,
        20,
        21,
        22,
        23,
        24,
        25,
        26,
        27,
        28,
        29,
        30,
        31,
        32,
        33,
        34
      ],
      "name": "Leopard_2_(OTCo).obj.cleaner.materialmerger.gles"
    },
    {
      "mesh": 0,
      "name": "Object_2"
    },
    {
      "mesh": 1,
      "name": "Object_3"
    },
    {
      "mesh": 2,
      "name": "Object_4"
    },
    {
      "mesh": 3,
      "name": "Object_5"
    },
    {
      "mesh": 4,
      "name": "Object_6"
    },
    {
      "mesh": 5,
      "name": "Object_7"
    },
    {
      "mesh": 6,
      "name": "Object_8"
    },
    {
      "mesh": 7,
      "name": "Object_9"
    },
    {
      "mesh": 8,
      "name": "Object_10"
    },
    {
      "mesh": 9,
      "name": "Object_11"
    },
    {
      "mesh": 10,
      "name": "Object_12"
    },
    {
      "mesh": 11,
      "name": "Object_13"
    },
    {
      "mesh": 12,
      "name": "Object_14"
    },
    {
      "mesh": 13,
      "name": "Object_15"
    },
    {
      "mesh": 14,
      "name": "Object_16"
    },
    {
      "mesh": 15,
      "name": "Object_17"
    },
    {
      "mesh": 16,
      "name": "Object_18"
    },
    {
      "mesh": 17,
      "name": "Object_19"
    },
    {
      "mesh": 18,
      "name": "Object_20"
    },
    {
      "mesh": 19,
      "name": "Object_21"
    },
    {
      "mesh": 20,
      "name": "Object_22"
    },
    {
      "mesh": 21,
      "name": "Object_23"
    },
    {
      "mesh": 22,
      "name": "Object_24"
    },
    {
      "mesh": 23,
      "name": "Object_25"
    },
    {
      "mesh": 24,
      "name": "Object_26"
    },
    {
      "mesh": 25,
      "name": "Object_27"
    },
    {
      "mesh": 26,
      "name": "Object_28"
    },
    {
      "mesh": 27,
      "name": "Object_29"
    },
    {
      "mesh": 28,
      "name": "Object_30"
    },
    {
      "mesh": 29,
      "name": "Object_31"
    },
    {
      "mesh": 30,
      "name": "Object_32"
    },
    {
      "mesh": 31,
      "name": "Object_33"
    },
    {
      "mesh": 32,
      "name": "Object_34"
    }
  ],
  "samplers": [
    {
      "magFilter": 9729,
      "minFilter": 9987,
      "wrapS": 10497,
      "wrapT": 10497
    }
  ],
  "scene": 0,
  "scenes": [
    {
      "name": "Sketchfab_Scene",
      "nodes": [
        0
      ]
    }
  ],
  "textures": [
    {
      "sampler": 0,
      "source": 0
    },
    {
      "sampler": 0,
      "source": 1
    },
    {
      "sampler": 0,
      "source": 2
    },
    {
      "sampler": 0,
      "source": 3
    },
    {
      "sampler": 0,
      "source": 4
    },
    {
      "sampler": 0,
      "source": 5
    },
    {
      "sampler": 0,
      "source": 6
    },
    {
      "sampler": 0,
      "source": 7
    },
    {
      "sampler": 0,
      "source": 8
    },
    {
      "sampler": 0,
      "source": 9
    },
    {
      "sampler": 0,
      "source": 10
    },
    {
      "sampler": 0,
      "source": 11
    },
    {
      "sampler": 0,
      "source": 12
    },
    {
      "sampler": 0,
      "source": 13
    },
    {
      "sampler": 0,
      "source": 14
    },
    {
      "sampler": 0,
      "source": 15
    },
    {
      "sampler": 0,
      "source": 16
    },
    {
      "sampler": 0,
      "source": 17
    },
    {
      "sampler": 0,
      "source": 18
    },
    {
      "sampler": 0,
      "source": 19
    },
    {
      "sampler": 0,
      "source": 20
    },
    {
      "sampler": 0,
      "source": 21
    },
    {
      "sampler": 0,
      "source": 22
    },
    {
      "sampler": 0,
      "source": 23
    },
    {
      "sampler": 0,
      "source": 24
    },
    {
      "sampler": 0,
      "source": 25
    },
    {
      "sampler": 0,
      "source": 26
    },
    {
      "sampler": 0,
      "source": 27
    },
    {
      "sampler": 0,
      "source": 28
    },
    {
      "sampler": 0,
      "source": 29
    },
    {
      "sampler": 0,
      "source": 30
    },
    {
      "sampler": 0,
      "source": 31
    },
    {
      "sampler": 0,
      "source": 32
    },
    {
      "sampler": 0,
      "source": 33
    },
    {
      "sampler": 0,
      "source": 34
    },
    {
      "sampler": 0,
      "source": 35
    },
    {
      "sampler": 0,
      "source": 36
    },
    {
      "sampler": 0,
      "source": 37
    },
    {
      "sampler": 0,
      "source": 38
    },
    {
      "sampler": 0,
      "source": 39
    },
    {
      "sampler": 0,
      "source": 40
    },
    {
      "sampler": 0,
      "source": 41
    },
    {
      "sampler": 0,
      "source": 42
    },
    {
      "sampler": 0,
      "source": 43
    },
    {
      "sampler": 0,
      "source": 44
    },
    {
      "sampler": 0,
      "source": 45
    },
    {
      "sampler": 0,
      "source": 46
    },
    {
      "sampler": 0,
      "source": 47
    },
    {
      "sampler": 0,
      "source": 48
    },
    {
      "sampler": 0,
      "source": 49
    },
    {
      "sampler": 0,
      "source": 50
    },
    {
      "sampler": 0,
      "source": 51
    },
    {
      "sampler": 0,
      "source": 52
    },
    {
      "sampler": 0,
      "source": 53
    },
    {
      "sampler": 0,
      "source": 54
    },
    {
      "sampler": 0,
      "source": 55
    },
    {
      "sampler": 0,
      "source": 56
    }
  ]
}
